<?xml version="1.0" encoding="UTF-8"?>
<svg id="Layer_1" data-name="Layer 1" xmlns="http://www.w3.org/2000/svg" viewBox="0 0 2050.69 1098.23">
  <defs>
    <style>
      .cls-1 {
        fill: #b94e30;
      }

      .cls-2 {
        fill: #252626;
      }
    </style>
  </defs>
  <path class="cls-2" d="M830.81,521.48c4.71-2.52,8.49-6.08,11.33-10.69,2.84-4.6,4.26-9.96,4.26-16.07,0-4.18-.83-8.09-2.49-11.73-1.66-3.64-3.91-6.85-6.75-9.64-2.84-2.78-6.08-4.93-9.72-6.43,3.11-1.5,5.87-3.48,8.27-5.95,2.41-2.46,4.28-5.3,5.62-8.52,1.34-3.21,2.01-6.59,2.01-10.12,0-6-1.37-11.19-4.1-15.59-2.73-4.39-6.37-7.82-10.93-10.28-4.55-2.46-9.62-3.7-15.18-3.7h-65.23v112.47h67.16c5.78,0,11.03-1.26,15.75-3.78ZM774.89,435.27h30.37c2.14,0,4.04.51,5.7,1.53,1.66,1.02,2.97,2.36,3.94,4.02.96,1.66,1.45,3.56,1.45,5.7s-.48,3.88-1.45,5.54c-.96,1.66-2.28,3-3.94,4.02-1.66,1.02-3.56,1.53-5.7,1.53h-30.37v-22.33ZM807.99,502.92h-33.1v-23.78h33.1c2.25,0,4.26.54,6.03,1.61,1.77,1.07,3.19,2.49,4.26,4.26,1.07,1.77,1.61,3.78,1.61,6.03s-.54,4.12-1.61,5.94c-1.07,1.82-2.49,3.27-4.26,4.34-1.77,1.07-3.78,1.61-6.03,1.61Z"/>
  <path class="cls-2" d="M874.27,522.28c6.16,3.27,13.47,4.9,21.93,4.9s15.88-1.63,21.93-4.9c6.05-3.27,10.68-7.71,13.9-13.34,3.21-5.62,4.82-11.86,4.82-18.72v-47.4h-24.9v46.76c0,2.89-.7,5.54-2.09,7.95-1.39,2.41-3.29,4.34-5.7,5.78s-5.12,2.17-8.11,2.17-5.86-.72-8.27-2.17c-2.41-1.45-4.31-3.37-5.7-5.78-1.39-2.41-2.09-5.06-2.09-7.95v-46.76h-24.9v47.4c0,6.86,1.66,13.09,4.98,18.72,3.32,5.62,8.06,10.07,14.22,13.34Z"/>
  <path class="cls-2" d="M962.24,495.29c4.28,3.37,9.42,5.81,15.42,7.31v24.58h24.9v-24.74c6-1.39,11.11-3.8,15.34-7.23,4.23-3.43,7.44-7.55,9.64-12.37,2.19-4.82,3.29-10.07,3.29-15.75v-24.27h-24.9v23.46c0,2.89-.7,5.57-2.09,8.03-1.39,2.47-3.29,4.42-5.7,5.86-2.41,1.45-5.17,2.17-8.27,2.17s-5.7-.72-8.11-2.17c-2.41-1.45-4.31-3.4-5.7-5.86-1.39-2.46-2.09-5.14-2.09-8.03v-23.46h-24.9v24.27c0,5.68,1.13,10.95,3.37,15.83,2.25,4.88,5.52,9,9.8,12.37Z"/>
  <path class="cls-2" d="M1102.43,446.36c-5.84-3.64-13.09-5.46-21.77-5.46-7.61,0-14.54,1.74-20.81,5.22-6.27,3.48-11.28,8.43-15.02,14.86-3.75,6.43-5.62,14.14-5.62,23.14,0,8.14,1.95,15.29,5.86,21.45,3.91,6.16,9.4,10.98,16.47,14.46,7.07,3.48,15.26,5.22,24.58,5.22h24.42v-20.57h-25.23c-3.43,0-6.54-.45-9.32-1.37-2.79-.91-5.09-2.33-6.91-4.26-1.82-1.93-3.05-4.28-3.7-7.07h53.99c.21-1.07.4-2.54.56-4.42.16-1.87.24-3.51.24-4.9,0-8.03-1.5-15.18-4.5-21.45-3-6.27-7.42-11.22-13.26-14.86ZM1064.75,476.41c.32-1.93.83-3.83,1.53-5.7.7-1.87,1.69-3.53,2.97-4.98,1.29-1.45,2.89-2.6,4.82-3.46,1.93-.86,4.12-1.29,6.59-1.29,1.93,0,3.67.27,5.22.8,1.55.54,2.92,1.26,4.1,2.17,1.18.91,2.22,1.98,3.13,3.21.91,1.23,1.58,2.65,2.01,4.26.43,1.61.75,3.27.96,4.98h-31.33Z"/>
  <path class="cls-2" d="M1152.47,468.69c0-1.61.53-2.92,1.61-3.94,1.07-1.02,2.35-1.53,3.86-1.53h17.84v-20.24h-23.94c-7.61,0-13.55,2.14-17.84,6.43-4.29,4.29-6.43,10.18-6.43,17.67v58.16h24.9v-56.56Z"/>
  <path class="cls-2" d="M931.39,574.84c-4.29,4.29-6.43,10.18-6.43,17.67v58.16h24.9v-56.56c0-1.61.53-2.92,1.61-3.94,1.07-1.02,2.35-1.53,3.86-1.53h17.84v-20.24h-23.94c-7.61,0-13.55,2.14-17.84,6.43Z"/>
  <path class="cls-2" d="M831.93,557.48c-3.75-6.05-8.76-10.79-15.02-14.22-6.27-3.43-13.15-5.14-20.65-5.14h-48.36v112.47h26.99v-31.49h21.37c7.6,0,14.51-1.71,20.73-5.14,6.21-3.43,11.19-8.22,14.94-14.38,3.75-6.16,5.62-13.2,5.62-21.13s-1.88-14.91-5.62-20.97ZM808.15,588.25c-1.61,2.68-3.7,4.71-6.27,6.1-2.57,1.39-5.46,2.09-8.68,2.09h-18.32v-35.83h18.32c3.11,0,5.97.72,8.6,2.17,2.62,1.45,4.74,3.51,6.35,6.19,1.61,2.68,2.41,5.89,2.41,9.64s-.8,6.96-2.41,9.64Z"/>
  <path class="cls-2" d="M900.62,571.7c-5.84-3.64-13.09-5.46-21.77-5.46-7.61,0-14.54,1.74-20.81,5.22-6.27,3.48-11.27,8.43-15.02,14.86-3.75,6.43-5.62,14.14-5.62,23.14,0,8.14,1.95,15.29,5.86,21.45,3.91,6.16,9.4,10.98,16.47,14.46,7.07,3.48,15.26,5.22,24.58,5.22h24.42v-20.57h-25.23c-3.43,0-6.54-.46-9.32-1.37-2.79-.91-5.09-2.33-6.91-4.26-1.82-1.93-3.05-4.28-3.7-7.07h53.99c.21-1.07.4-2.54.56-4.42.16-1.87.24-3.51.24-4.9,0-8.03-1.5-15.18-4.5-21.45-3-6.27-7.42-11.22-13.26-14.86ZM862.94,601.74c.32-1.93.83-3.83,1.53-5.7.7-1.87,1.69-3.53,2.97-4.98,1.29-1.45,2.89-2.6,4.82-3.46,1.93-.86,4.12-1.28,6.59-1.28,1.93,0,3.67.27,5.22.8,1.55.54,2.92,1.26,4.1,2.17,1.18.91,2.22,1.98,3.13,3.21.91,1.23,1.58,2.65,2.01,4.26.43,1.61.75,3.27.96,4.98h-31.33Z"/>
  <path class="cls-2" d="M996.3,573.63c-6.64,3.64-11.89,8.54-15.75,14.7-3.86,6.16-5.78,13.2-5.78,21.13s1.93,14.97,5.78,21.13c3.86,6.16,9.1,11.03,15.75,14.62,6.64,3.59,14.24,5.38,22.82,5.38h12.37v-20.89h-11.41c-4.18,0-7.77-.88-10.77-2.65-3-1.77-5.33-4.18-6.99-7.23-1.66-3.05-2.49-6.51-2.49-10.36s.83-7.31,2.49-10.36c1.66-3.05,3.99-5.46,6.99-7.23,3-1.77,6.59-2.65,10.77-2.65h11.41v-21.05h-12.37c-8.57,0-16.18,1.82-22.82,5.46Z"/>
  <path class="cls-2" d="M1098.25,571.7c-5.84-3.64-13.09-5.46-21.77-5.46-7.61,0-14.54,1.74-20.81,5.22-6.27,3.48-11.27,8.43-15.02,14.86-3.75,6.43-5.62,14.14-5.62,23.14,0,8.14,1.95,15.29,5.86,21.45,3.91,6.16,9.4,10.98,16.47,14.46,7.07,3.48,15.26,5.22,24.58,5.22h24.42v-20.57h-25.23c-3.43,0-6.54-.46-9.32-1.37-2.79-.91-5.09-2.33-6.91-4.26-1.82-1.93-3.05-4.28-3.7-7.07h53.99c.21-1.07.4-2.54.56-4.42.16-1.87.24-3.51.24-4.9,0-8.03-1.5-15.18-4.5-21.45-3-6.27-7.42-11.22-13.26-14.86ZM1060.57,601.74c.32-1.93.83-3.83,1.53-5.7.7-1.87,1.69-3.53,2.97-4.98,1.29-1.45,2.89-2.6,4.82-3.46,1.93-.86,4.12-1.28,6.59-1.28,1.93,0,3.67.27,5.22.8,1.55.54,2.92,1.26,4.1,2.17,1.18.91,2.22,1.98,3.13,3.21.91,1.23,1.58,2.65,2.01,4.26.43,1.61.75,3.27.96,4.98h-31.33Z"/>
  <path class="cls-2" d="M1199.95,578.85c-3.8-4.02-8.41-7.12-13.82-9.32-5.41-2.19-11.6-3.29-18.56-3.29-8.89,0-16.66,1.85-23.3,5.54-6.64,3.7-11.78,8.86-15.42,15.5-3.64,6.64-5.46,14.52-5.46,23.62v74.55h24.9v-43.86h.48c1.61,2.36,3.61,4.34,6.02,5.94,2.41,1.61,5.09,2.84,8.03,3.7,2.94.86,6.08,1.28,9.4,1.28,7.82,0,14.67-1.77,20.57-5.3,5.89-3.53,10.52-8.43,13.9-14.7,3.37-6.27,5.06-13.47,5.06-21.61,0-6.53-1.02-12.5-3.05-17.91-2.04-5.41-4.96-10.12-8.76-14.14ZM1184.04,620.22c-1.55,3.21-3.72,5.76-6.51,7.63-2.79,1.88-6.11,2.81-9.96,2.81s-7.2-.94-10.04-2.81c-2.84-1.87-5.01-4.42-6.51-7.63-1.5-3.21-2.25-6.85-2.25-10.93s.75-7.74,2.25-11.01c1.5-3.27,3.67-5.84,6.51-7.71,2.84-1.87,6.19-2.81,10.04-2.81s7.18.94,9.96,2.81c2.78,1.87,4.95,4.45,6.51,7.71,1.55,3.27,2.33,6.94,2.33,11.01s-.78,7.71-2.33,10.93Z"/>
  <path class="cls-2" d="M1247.91,548.08h-25.06v20.08h-13.5v20.41h13.5v37.92c0,7.39,2.14,13.26,6.43,17.59,4.28,4.34,10.23,6.51,17.83,6.51h23.46v-20.89h-18c-1.29,0-2.39-.46-3.29-1.37-.91-.91-1.37-2.01-1.37-3.29v-36.47h22.66v-20.41h-22.66v-20.08Z"/>
  <path class="cls-2" d="M1291.93,529.44c-3.96,0-7.39,1.47-10.28,4.42-2.89,2.95-4.34,6.4-4.34,10.36s1.45,7.39,4.34,10.28c2.89,2.89,6.32,4.34,10.28,4.34s7.39-1.45,10.28-4.34c2.89-2.89,4.34-6.32,4.34-10.28s-1.45-7.42-4.34-10.36c-2.89-2.94-6.32-4.42-10.28-4.42Z"/>
  <rect class="cls-2" x="1279.4" y="568.16" width="25.06" height="82.42"/>
  <path class="cls-2" d="M1379.9,571.94c-6.7-3.8-14.27-5.7-22.74-5.7s-16.07,1.9-22.82,5.7c-6.75,3.8-12.08,8.95-15.99,15.43-3.91,6.48-5.86,13.84-5.86,22.09s1.95,15.48,5.86,22.01c3.91,6.53,9.24,11.68,15.99,15.42,6.75,3.75,14.35,5.62,22.82,5.62s15.91-1.88,22.66-5.62c6.75-3.75,12.08-8.89,15.99-15.42,3.91-6.53,5.86-13.87,5.86-22.01s-1.96-15.61-5.86-22.09c-3.91-6.48-9.21-11.62-15.91-15.43ZM1374.2,620.22c-1.61,3.21-3.86,5.79-6.75,7.71-2.89,1.93-6.32,2.89-10.28,2.89s-7.42-.96-10.36-2.89c-2.95-1.93-5.22-4.5-6.83-7.71-1.61-3.21-2.41-6.85-2.41-10.93s.8-7.55,2.41-10.77c1.61-3.21,3.88-5.78,6.83-7.71,2.94-1.93,6.4-2.89,10.36-2.89s7.39.96,10.28,2.89c2.89,1.93,5.14,4.5,6.75,7.71,1.61,3.21,2.41,6.8,2.41,10.77s-.8,7.71-2.41,10.93Z"/>
  <path class="cls-2" d="M1486.99,584.55c-3.21-5.57-7.85-10.02-13.9-13.34-6.05-3.32-13.36-4.98-21.93-4.98s-15.77,1.66-21.93,4.98c-6.16,3.32-10.9,7.77-14.22,13.34-3.32,5.57-4.98,11.78-4.98,18.64v47.4h24.9v-46.75c0-2.89.7-5.54,2.09-7.95,1.39-2.41,3.29-4.34,5.7-5.78,2.41-1.45,5.17-2.17,8.27-2.17s5.7.72,8.11,2.17c2.41,1.45,4.31,3.37,5.7,5.78,1.39,2.41,2.09,5.06,2.09,7.95v46.75h24.9v-47.4c0-6.85-1.61-13.07-4.82-18.64Z"/>
  <polygon class="cls-1" points="660.97 572.38 689.46 501.11 689.46 412.78 586.6 412.78 586.6 503.22 558.88 572.33 587.32 572.38 587.36 650.68 689.47 650.67 689.46 572.42 660.97 572.38"/>
</svg>